<svg xmlns="http://www.w3.org/2000/svg" viewBox="0 0 11.3 11.3"><defs><style>.cls-1{fill:#5b5b5f;}</style></defs><title>confi</title><g id="Capa_2" data-name="Capa 2"><g id="Capa_1-2" data-name="Capa 1"><path class="cls-1" d="M7.86,9.59A1.92,1.92,0,0,1,9.21,10a5.67,5.67,0,0,0,.72-.7,1.92,1.92,0,0,1,1.33-3.1,5.66,5.66,0,0,0,0-1v0A1.92,1.92,0,0,1,10,2.08a5.67,5.67,0,0,0-.7-.72A1.93,1.93,0,0,1,6.87,1.3,1.92,1.92,0,0,1,6.22,0a5.66,5.66,0,0,0-1,0h0A1.93,1.93,0,0,1,3.44,1.7a1.92,1.92,0,0,1-1.35-.43,5.68,5.68,0,0,0-.72.7A1.93,1.93,0,0,1,1.3,4.42,1.92,1.92,0,0,1,0,5.07,5.66,5.66,0,0,0,0,6v0A1.93,1.93,0,0,1,1.7,7.86a1.92,1.92,0,0,1-.43,1.35,5.67,5.67,0,0,0,.7.72,1.92,1.92,0,0,1,3.1,1.33,5.66,5.66,0,0,0,1,0h0A1.93,1.93,0,0,1,7.86,9.59ZM2.49,5.65A3.16,3.16,0,1,1,5.65,8.81,3.16,3.16,0,0,1,2.49,5.65Z"/></g></g></svg>