<svg xmlns="http://www.w3.org/2000/svg" viewBox="0 0 11.02 11.3"><defs><style>.cls-1{fill:#5b5b5f;}</style></defs><title>usuario</title><g id="Capa_2" data-name="Capa 2"><g id="Capa_1-2" data-name="Capa 1"><path class="cls-1" d="M5.48,6.48c-2.46,0-2.6-4.11-2.6-4.11A2.32,2.32,0,0,1,5.16,0h.7A2.32,2.32,0,0,1,8.14,2.37S7.94,6.48,5.48,6.48Z"/><path class="cls-1" d="M10,7.83A8.1,8.1,0,0,0,7,6.7,4.65,4.65,0,0,1,5.51,8.47,4.65,4.65,0,0,1,4.06,6.7,8.1,8.1,0,0,0,1,7.83c-1.15.64-1,1.48-1,2.48s1.48,1,1.48,1h8s1.44,0,1.48-1S11.18,8.47,10,7.83Z"/></g></g></svg>